<svg width="263" height="80" viewBox="0 0 263 80" fill="none" xmlns="http://www.w3.org/2000/svg">
<rect width="263" height="80" rx="30" fill="#FFD700"/>
<path d="M74.52 53H68.5L59.435 40.33V53H54.15V28.01H59.435V40.12L68.395 28.01H74.03L64.93 40.015L74.52 53ZM92.9606 53L91.1406 47.05H82.0406L80.2206 53H74.5156L83.3356 27.905H89.8106L98.6656 53H92.9606ZM88.0606 36.795C87.944 36.3983 87.7923 35.8967 87.6056 35.29C87.419 34.6833 87.2323 34.065 87.0456 33.435C86.859 32.805 86.7073 32.2567 86.5906 31.79C86.474 32.2567 86.3106 32.84 86.1006 33.54C85.914 34.2167 85.7273 34.87 85.5406 35.5C85.3773 36.1067 85.249 36.5383 85.1556 36.795L83.3706 42.605H89.8806L88.0606 36.795ZM108.995 53H103.71V32.42H96.9197V28.01H115.785V32.42H108.995V53ZM132.472 53L130.652 47.05H121.552L119.732 53H114.027L122.847 27.905H129.322L138.177 53H132.472ZM127.572 36.795C127.456 36.3983 127.304 35.8967 127.117 35.29C126.931 34.6833 126.744 34.065 126.557 33.435C126.371 32.805 126.219 32.2567 126.102 31.79C125.986 32.2567 125.822 32.84 125.612 33.54C125.426 34.2167 125.239 34.87 125.052 35.5C124.889 36.1067 124.761 36.5383 124.667 36.795L122.882 42.605H129.392L127.572 36.795ZM161.117 53H155.832V32.42H149.707C149.567 33.4933 149.416 34.66 149.252 35.92C149.112 37.18 148.949 38.4633 148.762 39.77C148.599 41.0533 148.424 42.2783 148.237 43.445C148.051 44.5883 147.864 45.6033 147.677 46.49C147.374 47.9367 146.966 49.1733 146.452 50.2C145.962 51.2267 145.274 52.0083 144.387 52.545C143.524 53.0817 142.392 53.35 140.992 53.35C140.526 53.35 140.082 53.315 139.662 53.245C139.242 53.175 138.846 53.0817 138.472 52.965V48.625C138.776 48.7183 139.067 48.8 139.347 48.87C139.651 48.94 139.977 48.975 140.327 48.975C140.794 48.975 141.179 48.8233 141.482 48.52C141.786 48.2167 142.054 47.7033 142.287 46.98C142.521 46.2333 142.754 45.2067 142.987 43.9C143.104 43.34 143.244 42.5467 143.407 41.52C143.571 40.47 143.757 39.245 143.967 37.845C144.201 36.4217 144.434 34.8817 144.667 33.225C144.901 31.545 145.122 29.8067 145.332 28.01H161.117V53ZM190.101 40.47C190.101 42.4067 189.856 44.1683 189.366 45.755C188.9 47.3183 188.176 48.6717 187.196 49.815C186.24 50.9583 185.003 51.8333 183.486 52.44C181.993 53.0467 180.231 53.35 178.201 53.35C176.171 53.35 174.398 53.0467 172.881 52.44C171.388 51.81 170.151 50.935 169.171 49.815C168.215 48.6717 167.491 47.3067 167.001 45.72C166.535 44.1333 166.301 42.3717 166.301 40.435C166.301 37.845 166.721 35.5933 167.561 33.68C168.425 31.7667 169.731 30.285 171.481 29.235C173.255 28.1617 175.506 27.625 178.236 27.625C180.943 27.625 183.171 28.1617 184.921 29.235C186.671 30.285 187.966 31.7783 188.806 33.715C189.67 35.6283 190.101 37.88 190.101 40.47ZM171.866 40.47C171.866 42.22 172.088 43.725 172.531 44.985C172.975 46.245 173.663 47.2133 174.596 47.89C175.53 48.5667 176.731 48.905 178.201 48.905C179.718 48.905 180.931 48.5667 181.841 47.89C182.775 47.2133 183.451 46.245 183.871 44.985C184.315 43.725 184.536 42.22 184.536 40.47C184.536 37.8333 184.046 35.7683 183.066 34.275C182.086 32.7817 180.476 32.035 178.236 32.035C176.743 32.035 175.53 32.3733 174.596 33.05C173.663 33.7267 172.975 34.695 172.531 35.955C172.088 37.215 171.866 38.72 171.866 40.47ZM211.063 28.01V32.385H200.563V53H195.278V28.01H211.063Z" fill="black"/>
</svg>
