<svg width="544" height="97" viewBox="0 0 544 97" fill="none" xmlns="http://www.w3.org/2000/svg">
<rect width="544" height="97" rx="20" fill="#FFD700"/>
<path d="M102.52 49.68C102.52 51.8933 102.24 53.9067 101.68 55.72C101.147 57.5067 100.32 59.0533 99.2 60.36C98.1067 61.6667 96.6933 62.6667 94.96 63.36C93.2533 64.0533 91.24 64.4 88.92 64.4C86.6 64.4 84.5733 64.0533 82.84 63.36C81.1333 62.64 79.72 61.64 78.6 60.36C77.5067 59.0533 76.68 57.4933 76.12 55.68C75.5867 53.8667 75.32 51.8533 75.32 49.64C75.32 46.68 75.8 44.1067 76.76 41.92C77.7467 39.7333 79.24 38.04 81.24 36.84C83.2667 35.6133 85.84 35 88.96 35C92.0533 35 94.6 35.6133 96.6 36.84C98.6 38.04 100.08 39.7467 101.04 41.96C102.027 44.1467 102.52 46.72 102.52 49.68ZM81.68 49.68C81.68 51.68 81.9333 53.4 82.44 54.84C82.9467 56.28 83.7333 57.3867 84.8 58.16C85.8667 58.9333 87.24 59.32 88.92 59.32C90.6533 59.32 92.04 58.9333 93.08 58.16C94.1467 57.3867 94.92 56.28 95.4 54.84C95.9067 53.4 96.16 51.68 96.16 49.68C96.16 46.6667 95.6 44.3067 94.48 42.6C93.36 40.8933 91.52 40.04 88.96 40.04C87.2533 40.04 85.8667 40.4267 84.8 41.2C83.7333 41.9733 82.9467 43.08 82.44 44.52C81.9333 45.96 81.68 47.68 81.68 49.68ZM124.756 35.04V38.56C127.876 38.64 130.356 39.1867 132.196 40.2C134.063 41.1867 135.396 42.4667 136.196 44.04C137.023 45.6133 137.436 47.3333 137.436 49.2C137.436 50.4 137.223 51.6267 136.796 52.88C136.396 54.1333 135.703 55.2933 134.716 56.36C133.756 57.4 132.463 58.2533 130.836 58.92C129.209 59.5867 127.183 59.9467 124.756 60V64.4H119.316V60C116.863 59.9467 114.809 59.5867 113.156 58.92C111.529 58.2533 110.236 57.3867 109.276 56.32C108.316 55.2533 107.636 54.1067 107.236 52.88C106.836 51.6267 106.636 50.4 106.636 49.2C106.636 47.8133 106.863 46.4933 107.316 45.24C107.769 43.9867 108.489 42.8667 109.476 41.88C110.463 40.8933 111.769 40.1067 113.396 39.52C115.023 38.9333 116.996 38.6133 119.316 38.56V35.04H124.756ZM119.316 43.28C117.583 43.36 116.196 43.6667 115.156 44.2C114.143 44.7067 113.409 45.3867 112.956 46.24C112.529 47.0933 112.316 48.0667 112.316 49.16C112.316 50.36 112.556 51.4133 113.036 52.32C113.543 53.2 114.303 53.9067 115.316 54.44C116.356 54.9467 117.689 55.24 119.316 55.32V43.28ZM124.756 55.32C126.383 55.24 127.703 54.9467 128.716 54.44C129.756 53.9067 130.516 53.2 130.996 52.32C131.503 51.4133 131.756 50.36 131.756 49.16C131.756 48.0667 131.529 47.0933 131.076 46.24C130.649 45.3867 129.916 44.7067 128.876 44.2C127.863 43.6667 126.489 43.36 124.756 43.28V55.32ZM168.77 49.68C168.77 51.8933 168.49 53.9067 167.93 55.72C167.397 57.5067 166.57 59.0533 165.45 60.36C164.357 61.6667 162.943 62.6667 161.21 63.36C159.503 64.0533 157.49 64.4 155.17 64.4C152.85 64.4 150.823 64.0533 149.09 63.36C147.383 62.64 145.97 61.64 144.85 60.36C143.757 59.0533 142.93 57.4933 142.37 55.68C141.837 53.8667 141.57 51.8533 141.57 49.64C141.57 46.68 142.05 44.1067 143.01 41.92C143.997 39.7333 145.49 38.04 147.49 36.84C149.517 35.6133 152.09 35 155.21 35C158.303 35 160.85 35.6133 162.85 36.84C164.85 38.04 166.33 39.7467 167.29 41.96C168.277 44.1467 168.77 46.72 168.77 49.68ZM147.93 49.68C147.93 51.68 148.183 53.4 148.69 54.84C149.197 56.28 149.983 57.3867 151.05 58.16C152.117 58.9333 153.49 59.32 155.17 59.32C156.903 59.32 158.29 58.9333 159.33 58.16C160.397 57.3867 161.17 56.28 161.65 54.84C162.157 53.4 162.41 51.68 162.41 49.68C162.41 46.6667 161.85 44.3067 160.73 42.6C159.61 40.8933 157.77 40.04 155.21 40.04C153.503 40.04 152.117 40.4267 151.05 41.2C149.983 41.9733 149.197 43.08 148.69 44.52C148.183 45.96 147.93 47.68 147.93 49.68ZM183.806 35.44C187.486 35.44 190.166 36.24 191.846 37.84C193.553 39.4133 194.406 41.5867 194.406 44.36C194.406 45.6133 194.219 46.8133 193.846 47.96C193.473 49.08 192.846 50.0933 191.966 51C191.113 51.88 189.979 52.5733 188.566 53.08C187.153 53.5867 185.406 53.84 183.326 53.84H180.726V64H174.686V35.44H183.806ZM183.486 40.4H180.726V48.88H182.726C183.873 48.88 184.859 48.7333 185.686 48.44C186.513 48.1467 187.153 47.68 187.606 47.04C188.059 46.4 188.286 45.5733 188.286 44.56C188.286 43.1467 187.899 42.1067 187.126 41.44C186.353 40.7467 185.139 40.4 183.486 40.4ZM211.883 64L205.003 41.6H204.843C204.87 42.1333 204.91 42.9333 204.963 44C205.016 45.0667 205.07 46.2133 205.123 47.44C205.176 48.64 205.203 49.7333 205.203 50.72V64H199.803V35.44H208.043L214.803 57.28H214.923L222.083 35.44H230.323V64H224.683V50.48C224.683 49.5733 224.696 48.5333 224.723 47.36C224.776 46.1867 224.816 45.08 224.843 44.04C224.896 42.9733 224.936 42.1733 224.963 41.64H224.803L217.443 64H211.883ZM237.538 35.44H242.978V49.24C242.978 49.9067 242.964 50.6533 242.938 51.48C242.911 52.3067 242.884 53.12 242.858 53.92C242.831 54.6933 242.804 55.3733 242.778 55.96C242.751 56.52 242.724 56.9067 242.698 57.12H242.818L256.018 35.44H263.258V64H257.858V50.28C257.858 49.56 257.871 48.7733 257.898 47.92C257.924 47.04 257.951 46.2 257.978 45.4C258.031 44.6 258.071 43.9067 258.098 43.32C258.151 42.7067 258.191 42.3067 258.218 42.12H258.058L244.818 64H237.538V35.44ZM281.467 64H275.427V40.48H267.667V35.44H289.227V40.48H281.467V64ZM293.631 64V35.44H299.671V46.4H302.071C304.765 46.4 306.965 46.7733 308.671 47.52C310.405 48.2667 311.685 49.2933 312.511 50.6C313.338 51.9067 313.751 53.4 313.751 55.08C313.751 56.9467 313.338 58.5467 312.511 59.88C311.685 61.2133 310.405 62.24 308.671 62.96C306.938 63.6533 304.698 64 301.951 64H293.631ZM301.711 59.04C303.551 59.04 304.991 58.7467 306.031 58.16C307.098 57.5733 307.631 56.5467 307.631 55.08C307.631 54.0667 307.365 53.2933 306.831 52.76C306.325 52.2267 305.591 51.8667 304.631 51.68C303.698 51.4667 302.565 51.36 301.231 51.36H299.671V59.04H301.711ZM360.578 42.12C360.578 44.04 359.898 45.5867 358.538 46.76C357.178 47.9333 355.444 48.6667 353.338 48.96V49.08C355.951 49.3467 357.951 50.08 359.338 51.28C360.751 52.4533 361.458 53.9867 361.458 55.88C361.458 57.5333 361.004 59.0133 360.098 60.32C359.191 61.6 357.844 62.6 356.058 63.32C354.271 64.04 352.058 64.4 349.418 64.4C347.258 64.4 345.338 64.2667 343.658 64C342.004 63.7333 340.564 63.3467 339.338 62.84V57.76C340.164 58.16 341.098 58.5067 342.138 58.8C343.178 59.0667 344.231 59.28 345.298 59.44C346.364 59.5733 347.351 59.64 348.258 59.64C350.791 59.64 352.618 59.28 353.738 58.56C354.884 57.8133 355.458 56.7733 355.458 55.44C355.458 54.08 354.631 53.0933 352.978 52.48C351.324 51.84 349.098 51.52 346.298 51.52H343.618V46.8H346.018C348.284 46.8 350.044 46.6533 351.298 46.36C352.551 46.0667 353.431 45.64 353.938 45.08C354.444 44.52 354.698 43.8533 354.698 43.08C354.698 42.0933 354.258 41.32 353.378 40.76C352.524 40.1733 351.231 39.88 349.498 39.88C348.031 39.88 346.644 40.0933 345.338 40.52C344.058 40.9467 342.858 41.5067 341.738 42.2L339.098 38.16C340.084 37.52 341.124 36.9733 342.218 36.52C343.338 36.04 344.564 35.68 345.898 35.44C347.231 35.1733 348.711 35.04 350.338 35.04C352.498 35.04 354.338 35.3467 355.858 35.96C357.378 36.5733 358.538 37.4133 359.338 38.48C360.164 39.52 360.578 40.7333 360.578 42.12ZM384.275 64L382.195 57.2H371.795L369.715 64H363.195L373.275 35.32H380.675L390.795 64H384.275ZM378.675 45.48C378.542 45.0267 378.369 44.4533 378.155 43.76C377.942 43.0667 377.729 42.36 377.515 41.64C377.302 40.92 377.129 40.2933 376.995 39.76C376.862 40.2933 376.675 40.96 376.435 41.76C376.222 42.5333 376.009 43.28 375.795 44C375.609 44.6933 375.462 45.1867 375.355 45.48L373.315 52.12H380.755L378.675 45.48ZM417.693 64H410.812L400.453 49.52V64H394.413V35.44H400.453V49.28L410.693 35.44H417.133L406.733 49.16L417.693 64ZM438.768 64L436.688 57.2H426.288L424.208 64H417.688L427.768 35.32H435.168L445.288 64H438.768ZM433.168 45.48C433.034 45.0267 432.861 44.4533 432.648 43.76C432.434 43.0667 432.221 42.36 432.008 41.64C431.794 40.92 431.621 40.2933 431.488 39.76C431.354 40.2933 431.168 40.96 430.928 41.76C430.714 42.5333 430.501 43.28 430.288 44C430.101 44.6933 429.954 45.1867 429.848 45.48L427.808 52.12H435.248L433.168 45.48ZM468.625 42.12C468.625 44.04 467.945 45.5867 466.585 46.76C465.225 47.9333 463.491 48.6667 461.385 48.96V49.08C463.998 49.3467 465.998 50.08 467.385 51.28C468.798 52.4533 469.505 53.9867 469.505 55.88C469.505 57.5333 469.051 59.0133 468.145 60.32C467.238 61.6 465.891 62.6 464.105 63.32C462.318 64.04 460.105 64.4 457.465 64.4C455.305 64.4 453.385 64.2667 451.705 64C450.051 63.7333 448.611 63.3467 447.385 62.84V57.76C448.211 58.16 449.145 58.5067 450.185 58.8C451.225 59.0667 452.278 59.28 453.345 59.44C454.411 59.5733 455.398 59.64 456.305 59.64C458.838 59.64 460.665 59.28 461.785 58.56C462.931 57.8133 463.505 56.7733 463.505 55.44C463.505 54.08 462.678 53.0933 461.025 52.48C459.371 51.84 457.145 51.52 454.345 51.52H451.665V46.8H454.065C456.331 46.8 458.091 46.6533 459.345 46.36C460.598 46.0667 461.478 45.64 461.985 45.08C462.491 44.52 462.745 43.8533 462.745 43.08C462.745 42.0933 462.305 41.32 461.425 40.76C460.571 40.1733 459.278 39.88 457.545 39.88C456.078 39.88 454.691 40.0933 453.385 40.52C452.105 40.9467 450.905 41.5067 449.785 42.2L447.145 38.16C448.131 37.52 449.171 36.9733 450.265 36.52C451.385 36.04 452.611 35.68 453.945 35.44C455.278 35.1733 456.758 35.04 458.385 35.04C460.545 35.04 462.385 35.3467 463.905 35.96C465.425 36.5733 466.585 37.4133 467.385 38.48C468.211 39.52 468.625 40.7333 468.625 42.12Z" fill="black"/>
</svg>
