<svg width="165" height="31" viewBox="0 0 165 31" fill="none" xmlns="http://www.w3.org/2000/svg">
<path d="M16.8159 23.5728C16.8159 23.6639 16.7931 23.7437 16.7476 23.812C16.702 23.869 16.6222 23.9202 16.5083 23.9658C16.3944 24.0114 16.2406 24.0456 16.0469 24.0684C15.8646 24.0911 15.631 24.1025 15.3462 24.1025C15.0728 24.1025 14.8392 24.0911 14.6455 24.0684C14.4518 24.0456 14.298 24.0114 14.1841 23.9658C14.0815 23.9202 14.0018 23.869 13.9448 23.812C13.8993 23.7437 13.8765 23.6639 13.8765 23.5728V4.43213H3.87891V23.5728C3.87891 23.6639 3.85042 23.7437 3.79346 23.812C3.74788 23.869 3.66813 23.9202 3.5542 23.9658C3.45166 24.0114 3.30355 24.0456 3.10986 24.0684C2.92757 24.0911 2.69401 24.1025 2.40918 24.1025C2.12435 24.1025 1.88509 24.0911 1.69141 24.0684C1.50911 24.0456 1.361 24.0114 1.24707 23.9658C1.13314 23.9202 1.05339 23.869 1.00781 23.812C0.96224 23.7437 0.939453 23.6639 0.939453 23.5728V3.08203C0.939453 2.68327 1.0363 2.38704 1.22998 2.19336C1.43506 1.98828 1.69141 1.88574 1.99902 1.88574H15.7905C16.1095 1.88574 16.3602 1.98828 16.5425 2.19336C16.7248 2.38704 16.8159 2.68327 16.8159 3.08203V23.5728ZM36.6914 15.7114C36.6914 16.9647 36.5262 18.1211 36.1958 19.1807C35.8654 20.2288 35.3698 21.1346 34.709 21.8979C34.0596 22.6613 33.2393 23.2594 32.248 23.6924C31.2682 24.1139 30.1289 24.3247 28.8301 24.3247C27.5654 24.3247 26.4603 24.1367 25.5146 23.7607C24.5804 23.3848 23.8 22.8379 23.1733 22.1201C22.5467 21.4023 22.0796 20.5308 21.772 19.5054C21.4644 18.48 21.3105 17.3179 21.3105 16.019C21.3105 14.7658 21.4701 13.6151 21.7891 12.5669C22.1195 11.5073 22.6094 10.5959 23.2588 9.83252C23.9196 9.06917 24.7399 8.47673 25.7197 8.05518C26.6995 7.63363 27.8446 7.42285 29.1548 7.42285C30.4194 7.42285 31.5189 7.61084 32.4531 7.98682C33.3988 8.36279 34.1849 8.90967 34.8115 9.62744C35.4382 10.3452 35.9053 11.2168 36.2129 12.2422C36.5319 13.2676 36.6914 14.424 36.6914 15.7114ZM33.7178 15.8994C33.7178 15.0677 33.638 14.2816 33.4785 13.541C33.3304 12.8005 33.0798 12.151 32.7266 11.5928C32.3734 11.0345 31.8949 10.5959 31.291 10.2769C30.6872 9.94645 29.9352 9.78125 29.0352 9.78125C28.2035 9.78125 27.4857 9.92936 26.8818 10.2256C26.2894 10.5218 25.7995 10.9434 25.4121 11.4902C25.0247 12.0257 24.7342 12.6637 24.5405 13.4043C24.3582 14.1449 24.2671 14.9538 24.2671 15.8311C24.2671 16.6742 24.3411 17.466 24.4893 18.2065C24.6488 18.9471 24.9051 19.5965 25.2583 20.1548C25.6229 20.7017 26.1071 21.1403 26.7109 21.4707C27.3148 21.7897 28.0667 21.9492 28.9668 21.9492C29.7871 21.9492 30.4992 21.8011 31.103 21.5049C31.7069 21.2087 32.2025 20.7928 32.5898 20.2573C32.9772 19.7218 33.262 19.0838 33.4443 18.3433C33.6266 17.6027 33.7178 16.7881 33.7178 15.8994ZM40.0239 29.1611C40.0239 29.2409 40.0068 29.3035 39.9727 29.3491C39.9385 29.4061 39.8701 29.4517 39.7676 29.4858C39.6764 29.52 39.5568 29.5485 39.4087 29.5713C39.2606 29.5941 39.0783 29.6055 38.8618 29.6055C38.6226 29.6055 38.4232 29.5941 38.2637 29.5713C38.1156 29.5485 37.9902 29.52 37.8877 29.4858C37.7965 29.4517 37.7282 29.4061 37.6826 29.3491C37.6484 29.3035 37.6313 29.2409 37.6313 29.1611V22.3081C37.6313 22.0233 37.6769 21.8353 37.7681 21.7441C37.8592 21.653 38.0358 21.6074 38.2979 21.6074H39.3916C39.8132 21.0947 40.2062 20.508 40.5708 19.8472C40.9354 19.1864 41.2715 18.3604 41.5791 17.3691C41.8981 16.3665 42.1886 15.1646 42.4507 13.7632C42.7127 12.3618 42.952 10.687 43.1685 8.73877C43.1912 8.57926 43.2197 8.43685 43.2539 8.31152C43.2995 8.1748 43.3564 8.07227 43.4248 8.00391C43.5046 7.92415 43.5957 7.86149 43.6982 7.81592C43.8008 7.77035 43.9204 7.74756 44.0571 7.74756H52.6021C52.8755 7.74756 53.0863 7.83301 53.2344 8.00391C53.3939 8.16341 53.4736 8.41406 53.4736 8.75586V21.6074H55.6099C55.8491 21.6074 56.02 21.653 56.1226 21.7441C56.2251 21.8353 56.2764 22.0233 56.2764 22.3081V29.1611C56.2764 29.2409 56.2593 29.3035 56.2251 29.3491C56.1909 29.4061 56.1226 29.4517 56.02 29.4858C55.9289 29.52 55.8035 29.5485 55.644 29.5713C55.4845 29.5941 55.2965 29.6055 55.0801 29.6055C54.8522 29.6055 54.6642 29.5941 54.5161 29.5713C54.368 29.5485 54.2427 29.52 54.1401 29.4858C54.049 29.4517 53.9806 29.4061 53.9351 29.3491C53.9009 29.3035 53.8838 29.2409 53.8838 29.1611V24H40.0239V29.1611ZM50.6367 10.0718H45.7661C45.5269 11.9289 45.2762 13.4954 45.0142 14.7715C44.7635 16.0475 44.4901 17.1242 44.1938 18.0015C43.909 18.8787 43.6071 19.5965 43.2881 20.1548C42.9691 20.7017 42.6387 21.1859 42.2969 21.6074H50.6367V10.0718ZM73.5542 15.6431C73.5542 16.9875 73.4061 18.1951 73.1099 19.2661C72.825 20.3371 72.3978 21.2485 71.8281 22.0005C71.2699 22.741 70.5749 23.3164 69.7432 23.7266C68.9115 24.1253 67.9601 24.3247 66.8892 24.3247C66.4334 24.3247 66.0119 24.2791 65.6245 24.188C65.2371 24.0968 64.8555 23.9544 64.4795 23.7607C64.1149 23.5671 63.7503 23.3221 63.3857 23.0259C63.0212 22.7297 62.6338 22.3822 62.2236 21.9834V29.6738C62.2236 29.765 62.2008 29.8447 62.1553 29.9131C62.1097 29.9814 62.0356 30.0384 61.9331 30.084C61.8306 30.1296 61.6882 30.1637 61.5059 30.1865C61.3236 30.2093 61.09 30.2207 60.8052 30.2207C60.5317 30.2207 60.3039 30.2093 60.1216 30.1865C59.9393 30.1637 59.7912 30.1296 59.6772 30.084C59.5747 30.0384 59.5007 29.9814 59.4551 29.9131C59.4209 29.8447 59.4038 29.765 59.4038 29.6738V8.19189C59.4038 8.08936 59.4209 8.0096 59.4551 7.95264C59.4893 7.88428 59.5576 7.82731 59.6602 7.78174C59.7627 7.73617 59.8937 7.70768 60.0532 7.69629C60.2127 7.6735 60.4064 7.66211 60.6343 7.66211C60.8735 7.66211 61.0672 7.6735 61.2153 7.69629C61.3748 7.70768 61.5059 7.73617 61.6084 7.78174C61.7109 7.82731 61.7793 7.88428 61.8135 7.95264C61.859 8.0096 61.8818 8.08936 61.8818 8.19189V10.2598C62.349 9.78125 62.799 9.3654 63.2319 9.01221C63.6649 8.65902 64.0978 8.36849 64.5308 8.14062C64.9751 7.90137 65.4251 7.72477 65.8809 7.61084C66.348 7.48551 66.8379 7.42285 67.3506 7.42285C68.4671 7.42285 69.4185 7.63932 70.2046 8.07227C70.9907 8.50521 71.6287 9.09766 72.1187 9.84961C72.62 10.6016 72.9845 11.4788 73.2124 12.4814C73.4403 13.4727 73.5542 14.5265 73.5542 15.6431ZM70.5806 15.9678C70.5806 15.1816 70.5179 14.424 70.3926 13.6948C70.2786 12.9543 70.0736 12.2992 69.7773 11.7295C69.4925 11.1598 69.1051 10.7041 68.6152 10.3623C68.1253 10.0205 67.5158 9.84961 66.7866 9.84961C66.422 9.84961 66.0632 9.90658 65.71 10.0205C65.3568 10.123 64.9979 10.2939 64.6333 10.5332C64.2687 10.7611 63.887 11.0687 63.4883 11.4561C63.0895 11.832 62.668 12.2992 62.2236 12.8574V18.9756C62.9984 19.9212 63.7332 20.6447 64.4282 21.146C65.1232 21.6473 65.8524 21.8979 66.6157 21.8979C67.3221 21.8979 67.9259 21.7271 68.4272 21.3853C68.9399 21.0435 69.3501 20.5877 69.6577 20.0181C69.9767 19.4484 70.2103 18.8104 70.3584 18.104C70.5065 17.3976 70.5806 16.6855 70.5806 15.9678ZM92.0967 15.7114C92.0967 16.9647 91.9315 18.1211 91.6011 19.1807C91.2707 20.2288 90.7751 21.1346 90.1143 21.8979C89.4648 22.6613 88.6445 23.2594 87.6533 23.6924C86.6735 24.1139 85.5342 24.3247 84.2354 24.3247C82.9707 24.3247 81.8656 24.1367 80.9199 23.7607C79.9857 23.3848 79.2052 22.8379 78.5786 22.1201C77.952 21.4023 77.4849 20.5308 77.1772 19.5054C76.8696 18.48 76.7158 17.3179 76.7158 16.019C76.7158 14.7658 76.8753 13.6151 77.1943 12.5669C77.5247 11.5073 78.0146 10.5959 78.6641 9.83252C79.3249 9.06917 80.1452 8.47673 81.125 8.05518C82.1048 7.63363 83.2498 7.42285 84.5601 7.42285C85.8247 7.42285 86.9242 7.61084 87.8584 7.98682C88.804 8.36279 89.5902 8.90967 90.2168 9.62744C90.8434 10.3452 91.3105 11.2168 91.6182 12.2422C91.9372 13.2676 92.0967 14.424 92.0967 15.7114ZM89.123 15.8994C89.123 15.0677 89.0433 14.2816 88.8838 13.541C88.7357 12.8005 88.485 12.151 88.1318 11.5928C87.7786 11.0345 87.3001 10.5959 86.6963 10.2769C86.0924 9.94645 85.3405 9.78125 84.4404 9.78125C83.6087 9.78125 82.891 9.92936 82.2871 10.2256C81.6947 10.5218 81.2048 10.9434 80.8174 11.4902C80.43 12.0257 80.1395 12.6637 79.9458 13.4043C79.7635 14.1449 79.6724 14.9538 79.6724 15.8311C79.6724 16.6742 79.7464 17.466 79.8945 18.2065C80.054 18.9471 80.3104 19.5965 80.6636 20.1548C81.0282 20.7017 81.5124 21.1403 82.1162 21.4707C82.7201 21.7897 83.472 21.9492 84.3721 21.9492C85.1924 21.9492 85.9045 21.8011 86.5083 21.5049C87.1121 21.2087 87.6077 20.7928 87.9951 20.2573C88.3825 19.7218 88.6673 19.0838 88.8496 18.3433C89.0319 17.6027 89.123 16.7881 89.123 15.8994ZM110.588 15.6431C110.588 16.9305 110.411 18.104 110.058 19.1636C109.705 20.2231 109.192 21.1403 108.52 21.915C107.848 22.6784 107.028 23.2708 106.059 23.6924C105.102 24.1139 104.02 24.3247 102.812 24.3247C101.559 24.3247 100.471 24.1253 99.5479 23.7266C98.6364 23.3164 97.8787 22.7069 97.2749 21.8979C96.6825 21.0776 96.2438 20.0579 95.959 18.8389C95.6742 17.6084 95.5317 16.1672 95.5317 14.5151C95.5317 13.1138 95.5944 11.8263 95.7197 10.6528C95.8564 9.46794 96.0444 8.40837 96.2837 7.47412C96.5229 6.52848 96.8078 5.72526 97.1382 5.06445C97.4686 4.40365 97.8047 3.87956 98.1465 3.49219C98.4997 3.10482 98.8415 2.7972 99.1719 2.56934C99.5137 2.33008 99.8896 2.11361 100.3 1.91992C100.71 1.71484 101.171 1.53825 101.684 1.39014C102.208 1.24202 102.795 1.111 103.444 0.99707L108.93 0.0913086C109.124 0.0571289 109.283 0.0457357 109.409 0.0571289C109.534 0.0571289 109.631 0.102702 109.699 0.193848C109.768 0.2736 109.813 0.410319 109.836 0.604004C109.859 0.797689 109.87 1.06543 109.87 1.40723C109.87 1.63509 109.859 1.82878 109.836 1.98828C109.813 2.14779 109.773 2.27881 109.716 2.38135C109.659 2.48389 109.574 2.56364 109.46 2.62061C109.346 2.67757 109.198 2.72314 109.016 2.75732L103.906 3.61182C103.393 3.69157 102.943 3.78271 102.556 3.88525C102.168 3.98779 101.821 4.10173 101.513 4.22705C101.217 4.35238 100.955 4.49479 100.727 4.6543C100.499 4.80241 100.271 4.99609 100.043 5.23535C99.8156 5.47461 99.6048 5.77083 99.4111 6.12402C99.2288 6.47721 99.0693 6.88167 98.9326 7.3374C98.8073 7.78174 98.6991 8.27165 98.6079 8.80713C98.5282 9.33122 98.4484 9.89518 98.3687 10.499C98.7446 10.1003 99.1434 9.74137 99.5649 9.42236C99.9865 9.09196 100.431 8.81283 100.898 8.58496C101.365 8.3571 101.855 8.1862 102.368 8.07227C102.892 7.94694 103.444 7.88428 104.025 7.88428C105.131 7.88428 106.093 8.07227 106.914 8.44824C107.745 8.81283 108.429 9.33691 108.964 10.0205C109.511 10.7041 109.916 11.5244 110.178 12.4814C110.451 13.4385 110.588 14.4924 110.588 15.6431ZM107.666 15.8823C107.666 15.1304 107.591 14.4126 107.443 13.729C107.307 13.0454 107.079 12.4473 106.76 11.9346C106.452 11.4105 106.031 10.9946 105.495 10.687C104.971 10.368 104.322 10.2085 103.547 10.2085C103.068 10.2085 102.618 10.2712 102.197 10.3965C101.787 10.5104 101.382 10.6927 100.983 10.9434C100.585 11.1826 100.186 11.4845 99.7871 11.8491C99.3883 12.2023 98.9611 12.6239 98.5054 13.1138C98.494 13.2961 98.4883 13.5068 98.4883 13.7461C98.4883 13.9854 98.4883 14.2303 98.4883 14.481C98.4883 15.7114 98.5623 16.7938 98.7104 17.728C98.87 18.6623 99.1263 19.4427 99.4795 20.0693C99.8327 20.696 100.3 21.1688 100.881 21.4878C101.462 21.8068 102.174 21.9663 103.017 21.9663C103.758 21.9663 104.418 21.8239 105 21.5391C105.581 21.2428 106.065 20.8327 106.452 20.3086C106.851 19.7845 107.153 19.1465 107.358 18.3945C107.563 17.6426 107.666 16.8052 107.666 15.8823ZM128.396 23.5728C128.396 23.6639 128.373 23.7437 128.327 23.812C128.282 23.869 128.208 23.9202 128.105 23.9658C128.002 24.0114 127.86 24.0456 127.678 24.0684C127.495 24.0911 127.268 24.1025 126.994 24.1025C126.709 24.1025 126.476 24.0911 126.293 24.0684C126.111 24.0456 125.969 24.0114 125.866 23.9658C125.764 23.9202 125.69 23.869 125.644 23.812C125.598 23.7437 125.576 23.6639 125.576 23.5728V16.8223H117.731V23.5728C117.731 23.6639 117.709 23.7437 117.663 23.812C117.618 23.869 117.543 23.9202 117.441 23.9658C117.338 24.0114 117.196 24.0456 117.014 24.0684C116.831 24.0911 116.598 24.1025 116.313 24.1025C116.04 24.1025 115.812 24.0911 115.629 24.0684C115.447 24.0456 115.299 24.0114 115.185 23.9658C115.083 23.9202 115.008 23.869 114.963 23.812C114.929 23.7437 114.912 23.6639 114.912 23.5728V8.19189C114.912 8.10075 114.929 8.02669 114.963 7.96973C115.008 7.90137 115.083 7.8444 115.185 7.79883C115.299 7.74186 115.447 7.70768 115.629 7.69629C115.812 7.6735 116.04 7.66211 116.313 7.66211C116.598 7.66211 116.831 7.6735 117.014 7.69629C117.196 7.70768 117.338 7.74186 117.441 7.79883C117.543 7.8444 117.618 7.90137 117.663 7.96973C117.709 8.02669 117.731 8.10075 117.731 8.19189V14.4468H125.576V8.19189C125.576 8.10075 125.598 8.02669 125.644 7.96973C125.69 7.90137 125.764 7.8444 125.866 7.79883C125.969 7.74186 126.111 7.70768 126.293 7.69629C126.476 7.6735 126.709 7.66211 126.994 7.66211C127.268 7.66211 127.495 7.6735 127.678 7.69629C127.86 7.70768 128.002 7.74186 128.105 7.79883C128.208 7.8444 128.282 7.90137 128.327 7.96973C128.373 8.02669 128.396 8.10075 128.396 8.19189V23.5728ZM146.767 15.2158C146.767 15.6602 146.653 15.9792 146.425 16.1729C146.209 16.3551 145.958 16.4463 145.673 16.4463H135.59C135.59 17.3008 135.676 18.0698 135.847 18.7534C136.018 19.437 136.302 20.0238 136.701 20.5137C137.1 21.0036 137.618 21.3796 138.256 21.6416C138.894 21.9036 139.675 22.0347 140.598 22.0347C141.327 22.0347 141.976 21.9777 142.546 21.8638C143.116 21.7384 143.605 21.6017 144.016 21.4536C144.437 21.3055 144.779 21.1745 145.041 21.0605C145.314 20.9352 145.52 20.8726 145.656 20.8726C145.736 20.8726 145.804 20.8953 145.861 20.9409C145.93 20.9751 145.981 21.0321 146.015 21.1118C146.049 21.1916 146.072 21.3055 146.083 21.4536C146.106 21.5903 146.118 21.7612 146.118 21.9663C146.118 22.1144 146.112 22.2454 146.101 22.3594C146.089 22.4619 146.072 22.5588 146.049 22.6499C146.038 22.7297 146.009 22.8037 145.964 22.8721C145.93 22.9404 145.878 23.0088 145.81 23.0771C145.753 23.1341 145.571 23.2367 145.263 23.3848C144.956 23.5215 144.557 23.6582 144.067 23.7949C143.577 23.9316 143.007 24.0513 142.358 24.1538C141.72 24.2677 141.036 24.3247 140.307 24.3247C139.042 24.3247 137.932 24.1481 136.975 23.7949C136.029 23.4417 135.231 22.9176 134.582 22.2227C133.933 21.5277 133.443 20.6561 133.112 19.6079C132.782 18.5597 132.617 17.3407 132.617 15.9507C132.617 14.6291 132.788 13.4442 133.129 12.396C133.471 11.3364 133.961 10.4421 134.599 9.71289C135.249 8.97233 136.029 8.40837 136.94 8.021C137.852 7.62223 138.872 7.42285 140 7.42285C141.207 7.42285 142.233 7.61654 143.076 8.00391C143.93 8.39128 144.631 8.91536 145.178 9.57617C145.725 10.2256 146.123 10.9946 146.374 11.8833C146.636 12.7606 146.767 13.7005 146.767 14.7031V15.2158ZM143.93 14.3784C143.964 12.8973 143.634 11.7352 142.939 10.8921C142.255 10.049 141.236 9.62744 139.88 9.62744C139.185 9.62744 138.575 9.75846 138.051 10.0205C137.527 10.2826 137.089 10.63 136.735 11.063C136.382 11.4959 136.109 12.0029 135.915 12.584C135.721 13.1536 135.613 13.7518 135.59 14.3784H143.93ZM164.199 15.2158C164.199 15.6602 164.085 15.9792 163.857 16.1729C163.64 16.3551 163.39 16.4463 163.105 16.4463H153.022C153.022 17.3008 153.107 18.0698 153.278 18.7534C153.449 19.437 153.734 20.0238 154.133 20.5137C154.532 21.0036 155.05 21.3796 155.688 21.6416C156.326 21.9036 157.106 22.0347 158.029 22.0347C158.758 22.0347 159.408 21.9777 159.978 21.8638C160.547 21.7384 161.037 21.6017 161.447 21.4536C161.869 21.3055 162.211 21.1745 162.473 21.0605C162.746 20.9352 162.951 20.8726 163.088 20.8726C163.168 20.8726 163.236 20.8953 163.293 20.9409C163.361 20.9751 163.413 21.0321 163.447 21.1118C163.481 21.1916 163.504 21.3055 163.515 21.4536C163.538 21.5903 163.549 21.7612 163.549 21.9663C163.549 22.1144 163.544 22.2454 163.532 22.3594C163.521 22.4619 163.504 22.5588 163.481 22.6499C163.47 22.7297 163.441 22.8037 163.396 22.8721C163.361 22.9404 163.31 23.0088 163.242 23.0771C163.185 23.1341 163.002 23.2367 162.695 23.3848C162.387 23.5215 161.988 23.6582 161.499 23.7949C161.009 23.9316 160.439 24.0513 159.79 24.1538C159.152 24.2677 158.468 24.3247 157.739 24.3247C156.474 24.3247 155.363 24.1481 154.406 23.7949C153.461 23.4417 152.663 22.9176 152.014 22.2227C151.364 21.5277 150.874 20.6561 150.544 19.6079C150.214 18.5597 150.048 17.3407 150.048 15.9507C150.048 14.6291 150.219 13.4442 150.561 12.396C150.903 11.3364 151.393 10.4421 152.031 9.71289C152.68 8.97233 153.461 8.40837 154.372 8.021C155.284 7.62223 156.303 7.42285 157.431 7.42285C158.639 7.42285 159.664 7.61654 160.507 8.00391C161.362 8.39128 162.062 8.91536 162.609 9.57617C163.156 10.2256 163.555 10.9946 163.806 11.8833C164.068 12.7606 164.199 13.7005 164.199 14.7031V15.2158ZM161.362 14.3784C161.396 12.8973 161.066 11.7352 160.371 10.8921C159.687 10.049 158.667 9.62744 157.312 9.62744C156.617 9.62744 156.007 9.75846 155.483 10.0205C154.959 10.2826 154.52 10.63 154.167 11.063C153.814 11.4959 153.54 12.0029 153.347 12.584C153.153 13.1536 153.045 13.7518 153.022 14.3784H161.362Z" fill="black"/>
</svg>
