<svg width="363" height="30" viewBox="0 0 363 30" fill="none" xmlns="http://www.w3.org/2000/svg">
<path d="M12.12 29V7.84H0.84V0.999998H31.6V7.84H20.04V29H12.12ZM57.1466 29.4C54.4799 29.4 52.0399 29.04 49.8266 28.32C47.6132 27.5733 45.7066 26.5467 44.1066 25.24C42.5066 23.9067 41.2666 22.36 40.3866 20.6C39.5066 18.8133 39.0666 16.8933 39.0666 14.84C39.0666 12.76 39.5066 10.84 40.3866 9.08C41.2932 7.32 42.5466 5.78667 44.1466 4.48C45.7466 3.14666 47.6399 2.12 49.8266 1.4C52.0399 0.653331 54.4799 0.279998 57.1466 0.279998C59.7866 0.279998 62.1999 0.653331 64.3866 1.4C66.5999 2.12 68.5066 3.14666 70.1066 4.48C71.7332 5.78667 72.9866 7.32 73.8666 9.08C74.7466 10.84 75.1866 12.7467 75.1866 14.8C75.1866 16.88 74.7466 18.8133 73.8666 20.6C72.9866 22.36 71.7332 23.9067 70.1066 25.24C68.5066 26.5467 66.5999 27.5733 64.3866 28.32C62.1999 29.04 59.7866 29.4 57.1466 29.4ZM57.1466 22.04C58.5866 22.04 59.9199 21.8667 61.1466 21.52C62.3732 21.1467 63.4266 20.64 64.3066 20C65.2132 19.3333 65.9066 18.56 66.3866 17.68C66.8666 16.8 67.1066 15.8533 67.1066 14.84C67.1066 13.8267 66.8666 12.88 66.3866 12C65.9066 11.12 65.2132 10.36 64.3066 9.72C63.4266 9.05333 62.3732 8.54667 61.1466 8.2C59.9199 7.82667 58.5866 7.64 57.1466 7.64C55.6799 7.64 54.3332 7.82667 53.1066 8.2C51.8799 8.54667 50.8132 9.05333 49.9066 9.72C49.0266 10.36 48.3466 11.12 47.8666 12C47.3866 12.88 47.1466 13.8267 47.1466 14.84C47.1466 15.8533 47.3866 16.8 47.8666 17.68C48.3466 18.56 49.0266 19.3333 49.9066 20C50.8132 20.64 51.8799 21.1467 53.1066 21.52C54.3332 21.8667 55.6799 22.04 57.1466 22.04ZM99.6478 29.4C97.2745 29.4 95.1011 29.2 93.1278 28.8C91.1545 28.3733 89.3678 27.8267 87.7678 27.16C86.1678 26.4933 84.7145 25.7867 83.4078 25.04L86.6878 18.72C89.0878 20.1867 91.4745 21.24 93.8478 21.88C96.2478 22.52 98.4211 22.84 100.368 22.84C101.034 22.84 101.768 22.8 102.568 22.72C103.394 22.6133 104.088 22.4 104.648 22.08C105.234 21.76 105.528 21.2533 105.528 20.56C105.528 20.1867 105.408 19.8933 105.168 19.68C104.954 19.44 104.621 19.24 104.168 19.08C103.714 18.92 103.154 18.7867 102.488 18.68C101.848 18.5733 101.114 18.4933 100.288 18.44C99.4878 18.36 98.5945 18.28 97.6078 18.2C95.7145 18.04 93.9945 17.7467 92.4478 17.32C90.9278 16.8933 89.6078 16.3333 88.4878 15.64C87.3945 14.92 86.5411 14.0533 85.9278 13.04C85.3411 12.0267 85.0478 10.8667 85.0478 9.56C85.0478 8.06666 85.4211 6.74666 86.1678 5.6C86.9145 4.42667 87.9545 3.45333 89.2878 2.68C90.6211 1.88 92.1545 1.28 93.8878 0.88C95.6211 0.479998 97.4745 0.279998 99.4478 0.279998C101.528 0.279998 103.381 0.453331 105.008 0.799998C106.661 1.14667 108.114 1.6 109.368 2.16C110.648 2.72 111.701 3.28 112.528 3.84L109.048 9.28C108.194 8.77333 107.194 8.34667 106.048 8C104.928 7.65333 103.768 7.38667 102.568 7.2C101.394 6.98667 100.248 6.88 99.1278 6.88C98.0611 6.88 97.0878 6.94667 96.2078 7.08C95.3545 7.21333 94.6745 7.44 94.1678 7.76C93.6878 8.05333 93.4478 8.46667 93.4478 9C93.4478 9.48 93.6878 9.86667 94.1678 10.16C94.6745 10.4267 95.3011 10.64 96.0478 10.8C96.8211 10.9333 97.6211 11.04 98.4478 11.12C99.2745 11.1733 100.021 11.24 100.688 11.32C102.288 11.4533 103.861 11.64 105.408 11.88C106.981 12.12 108.408 12.52 109.688 13.08C110.968 13.64 111.981 14.4533 112.728 15.52C113.501 16.5867 113.888 18.0267 113.888 19.84C113.888 21.8667 113.261 23.6 112.008 25.04C110.754 26.4533 109.048 27.5333 106.888 28.28C104.754 29.0267 102.341 29.4 99.6478 29.4ZM125.813 29V22.24H133.493V7.76H125.813V0.999998H149.053V7.76H141.413V22.24H149.053V29H125.813ZM168.526 22.48L166.286 16.24L185.806 0.999998H195.646L168.526 22.48ZM163.446 29V0.999998H171.366V29H163.446ZM186.406 29L174.606 14.72L179.286 9.56L195.846 29H186.406Z" fill="#FFD700"/>
<path d="M219.648 29.4C217.274 29.4 215.101 29.2 213.128 28.8C211.154 28.3733 209.368 27.8267 207.768 27.16C206.168 26.4933 204.714 25.7867 203.408 25.04L206.688 18.72C209.088 20.1867 211.474 21.24 213.848 21.88C216.248 22.52 218.421 22.84 220.368 22.84C221.034 22.84 221.768 22.8 222.568 22.72C223.394 22.6133 224.088 22.4 224.648 22.08C225.234 21.76 225.528 21.2533 225.528 20.56C225.528 20.1867 225.408 19.8933 225.168 19.68C224.954 19.44 224.621 19.24 224.168 19.08C223.714 18.92 223.154 18.7867 222.488 18.68C221.848 18.5733 221.114 18.4933 220.288 18.44C219.488 18.36 218.594 18.28 217.608 18.2C215.714 18.04 213.994 17.7467 212.448 17.32C210.928 16.8933 209.608 16.3333 208.488 15.64C207.394 14.92 206.541 14.0533 205.928 13.04C205.341 12.0267 205.048 10.8667 205.048 9.56C205.048 8.06666 205.421 6.74666 206.168 5.6C206.914 4.42667 207.954 3.45333 209.288 2.68C210.621 1.88 212.154 1.28 213.888 0.88C215.621 0.479998 217.474 0.279998 219.448 0.279998C221.528 0.279998 223.381 0.453331 225.008 0.799998C226.661 1.14667 228.114 1.6 229.368 2.16C230.648 2.72 231.701 3.28 232.528 3.84L229.048 9.28C228.194 8.77333 227.194 8.34667 226.048 8C224.928 7.65333 223.768 7.38667 222.568 7.2C221.394 6.98667 220.248 6.88 219.128 6.88C218.061 6.88 217.088 6.94667 216.208 7.08C215.354 7.21333 214.674 7.44 214.168 7.76C213.688 8.05333 213.448 8.46667 213.448 9C213.448 9.48 213.688 9.86667 214.168 10.16C214.674 10.4267 215.301 10.64 216.048 10.8C216.821 10.9333 217.621 11.04 218.448 11.12C219.274 11.1733 220.021 11.24 220.688 11.32C222.288 11.4533 223.861 11.64 225.408 11.88C226.981 12.12 228.408 12.52 229.688 13.08C230.968 13.64 231.981 14.4533 232.728 15.52C233.501 16.5867 233.888 18.0267 233.888 19.84C233.888 21.8667 233.261 23.6 232.008 25.04C230.754 26.4533 229.048 27.5333 226.888 28.28C224.754 29.0267 222.341 29.4 219.648 29.4ZM267.373 29V0.999998H275.293V29H267.373ZM244.813 29V0.999998H252.733V29H244.813ZM247.813 18.68L247.893 11.72H271.733V18.68H247.813ZM304.881 29.4C302.214 29.4 299.774 29.04 297.561 28.32C295.348 27.5733 293.441 26.5467 291.841 25.24C290.241 23.9067 289.001 22.36 288.121 20.6C287.241 18.8133 286.801 16.8933 286.801 14.84C286.801 12.76 287.241 10.84 288.121 9.08C289.028 7.32 290.281 5.78667 291.881 4.48C293.481 3.14666 295.374 2.12 297.561 1.4C299.774 0.653331 302.214 0.279998 304.881 0.279998C307.521 0.279998 309.934 0.653331 312.121 1.4C314.334 2.12 316.241 3.14666 317.841 4.48C319.468 5.78667 320.721 7.32 321.601 9.08C322.481 10.84 322.921 12.7467 322.921 14.8C322.921 16.88 322.481 18.8133 321.601 20.6C320.721 22.36 319.468 23.9067 317.841 25.24C316.241 26.5467 314.334 27.5733 312.121 28.32C309.934 29.04 307.521 29.4 304.881 29.4ZM304.881 22.04C306.321 22.04 307.654 21.8667 308.881 21.52C310.108 21.1467 311.161 20.64 312.041 20C312.948 19.3333 313.641 18.56 314.121 17.68C314.601 16.8 314.841 15.8533 314.841 14.84C314.841 13.8267 314.601 12.88 314.121 12C313.641 11.12 312.948 10.36 312.041 9.72C311.161 9.05333 310.108 8.54667 308.881 8.2C307.654 7.82667 306.321 7.64 304.881 7.64C303.414 7.64 302.068 7.82667 300.841 8.2C299.614 8.54667 298.548 9.05333 297.641 9.72C296.761 10.36 296.081 11.12 295.601 12C295.121 12.88 294.881 13.8267 294.881 14.84C294.881 15.8533 295.121 16.8 295.601 17.68C296.081 18.56 296.761 19.3333 297.641 20C298.548 20.64 299.614 21.1467 300.841 21.52C302.068 21.8667 303.414 22.04 304.881 22.04ZM334.422 29V0.999998H351.782C353.756 0.999998 355.529 1.41333 357.102 2.24C358.676 3.04 359.929 4.14666 360.862 5.56C361.796 6.97333 362.262 8.6 362.262 10.44C362.262 12.4133 361.756 14.1733 360.742 15.72C359.756 17.2667 358.409 18.48 356.702 19.36C354.996 20.24 353.089 20.68 350.982 20.68H342.342V29H334.422ZM342.222 13.84H349.302C350.182 13.84 350.956 13.72 351.622 13.48C352.316 13.2133 352.876 12.8267 353.302 12.32C353.729 11.8133 353.942 11.2267 353.942 10.56C353.942 9.94667 353.729 9.44 353.302 9.04C352.876 8.64 352.316 8.34667 351.622 8.16C350.956 7.94667 350.182 7.84 349.302 7.84H342.222V13.84Z" fill="black"/>
</svg>
